<?xml version="1.0" encoding="UTF-8" standalone="no"?>
<!-- Created with Inkscape (http://www.inkscape.org/) -->

<svg
   xmlns:dc="http://purl.org/dc/elements/1.1/"
   xmlns:cc="http://creativecommons.org/ns#"
   xmlns:rdf="http://www.w3.org/1999/02/22-rdf-syntax-ns#"
   xmlns:svg="http://www.w3.org/2000/svg"
   xmlns="http://www.w3.org/2000/svg"
   xmlns:sodipodi="http://sodipodi.sourceforge.net/DTD/sodipodi-0.dtd"
   xmlns:inkscape="http://www.inkscape.org/namespaces/inkscape"
   id="svg2"
   version="1.1"
   inkscape:version="0.91 r"
   xml:space="preserve"
   width="250"
   height="250"
   viewBox="0 0 250 250"
   sodipodi:docname="particle.svg"><metadata
     id="metadata8"><rdf:RDF><cc:Work
         rdf:about=""><dc:format>image/svg+xml</dc:format><dc:type
           rdf:resource="http://purl.org/dc/dcmitype/StillImage" /><dc:title /></cc:Work></rdf:RDF></metadata><defs
     id="defs6" /><sodipodi:namedview
     pagecolor="#ffffff"
     bordercolor="#666666"
     borderopacity="1"
     objecttolerance="10"
     gridtolerance="10"
     guidetolerance="10"
     inkscape:pageopacity="0"
     inkscape:pageshadow="2"
     inkscape:window-width="1918"
     inkscape:window-height="923"
     id="namedview4"
     showgrid="false"
     inkscape:zoom="256"
     inkscape:cx="112.54011"
     inkscape:cy="73.496274"
     inkscape:window-x="0"
     inkscape:window-y="25"
     inkscape:window-maximized="0"
     inkscape:current-layer="g10" /><g
     id="g10"
     inkscape:groupmode="layer"
     inkscape:label="spark-mark"
     transform="matrix(1.25,0,0,-1.25,0,250)"><g
       id="g28"
       transform="translate(164.001,164.1538)"
       style="fill:#808080"><path
         d="M 0,0 -41.139,-63.63 0,-127.268 l -63.638,41.14 -63.637,-41.14 41.138,63.638 L -127.275,0 -63.638,-41.13 0,0 Z"
         style="fill:#808080;fill-opacity:1;fill-rule:nonzero;stroke:none"
         id="path30"
         inkscape:connector-curvature="0" /></g><path
       style="fill:#808080;fill-opacity:1;fill-rule:nonzero;stroke:#000000;stroke-width:1.059322;stroke-opacity:0.55688626"
       d="m 45.074153,130.78304 c -15.002649,-3.21737 -27.277543,-6.14112 -27.277543,-6.49722 0,-0.35609 6.07786,-1.93588 13.506356,-3.51065 7.428496,-1.57476 19.821592,-4.21636 27.540214,-5.87021 l 14.033858,-3.00701 3.815451,6.28091 3.815452,6.28091 -4.078123,6.08653 -4.078123,6.08653 -27.277542,-5.84979 z"
       id="path4143"
       inkscape:connector-curvature="0"
       transform="matrix(0.8,0,0,-0.8,0,200)" /><path
       style="fill:#808080;fill-opacity:1;fill-rule:nonzero;stroke:#000000;stroke-width:1.059322;stroke-opacity:0.55688626"
       d="m 119.10159,75.374594 c -5.78226,-3.938221 -6.05701,-4.32433 -5.3417,-7.506824 0.41476,-1.845282 3.26678,-14.795736 6.33784,-28.778787 3.07105,-13.983051 5.62129,-24.947034 5.6672,-24.364407 0.0459,0.582627 2.70487,13.215043 5.9088,28.072034 3.20393,14.856992 5.82029,27.489407 5.81414,28.072034 -0.006,0.582627 -2.77404,2.768961 -6.15084,4.858519 l -6.13965,3.799196 -6.09579,-4.151765 z"
       id="path4145"
       inkscape:connector-curvature="0"
       transform="matrix(0.8,0,0,-0.8,0,200)" /><path
       style="fill:#808080;fill-opacity:1;fill-rule:nonzero;stroke:#000000;stroke-width:1.059322;stroke-opacity:0.55688626"
       d="m 174.23661,130.47338 -3.96534,-6.3646 4.00631,-6.22658 c 2.20348,-3.42462 4.48301,-6.05331 5.06564,-5.84154 0.58263,0.21178 13.08482,2.9393 27.78265,6.06116 14.69783,3.12186 26.37685,5.98968 25.95339,6.37294 -0.42347,0.38326 -12.44896,3.15781 -26.72333,6.16566 -14.27436,3.00785 -26.44852,5.63278 -27.05369,5.83319 -0.60516,0.2004 -2.8847,-2.4997 -5.06563,-6.00023 z"
       id="path4147"
       inkscape:connector-curvature="0"
       transform="matrix(0.8,0,0,-0.8,0,200)" /><path
       style="fill:#808080;fill-opacity:1;fill-rule:nonzero;stroke:#000000;stroke-width:1.059322;stroke-opacity:0.55688626"
       d="m 119.55044,207.17631 c -3.16299,-14.95862 -5.91357,-27.91254 -6.11239,-28.78648 -0.2269,-0.99728 1.98094,-3.02917 5.92904,-5.45653 l 6.29055,-3.86755 5.65635,3.75945 c 3.11099,2.0677 5.84204,3.91435 6.069,4.10365 0.32947,0.27481 -11.40991,56.58747 -11.9369,57.26018 -0.0796,0.10163 -2.73266,-12.05409 -5.89565,-27.01272 z"
       id="path4149"
       inkscape:connector-curvature="0"
       transform="matrix(0.8,0,0,-0.8,0,200)" /><path
       style="fill:#808080;fill-opacity:1;fill-rule:nonzero;stroke:#000000;stroke-width:0.18726344;stroke-opacity:0.55688626"
       d=""
       id="path4151"
       inkscape:connector-curvature="0"
       transform="matrix(0.8,0,0,-0.8,0,200)" /><path
       style="fill:#808080;fill-opacity:1;fill-rule:nonzero;stroke:#000000;stroke-width:0.18726344;stroke-opacity:0.55688626"
       d=""
       id="path4155"
       inkscape:connector-curvature="0"
       transform="matrix(0.8,0,0,-0.8,0,200)" /></g></svg>